<svg width="48" height="36" viewBox="0 0 48 36" fill="none" xmlns="http://www.w3.org/2000/svg">
<path d="M32.5 15L32.5 15.5L33 15.5L42 15.5C43.4587 15.5 44.8576 16.0795 45.8891 17.1109C46.9205 18.1424 47.5 19.5413 47.5 21L47.5 30C47.5 31.4587 46.9205 32.8576 45.8891 33.8891C44.8576 34.9205 43.4587 35.5 42 35.5L33 35.5C31.5413 35.5 30.1424 34.9205 29.1109 33.8891C28.0795 32.8576 27.5 31.4587 27.5 30L27.5 15C27.5 11.1544 29.0277 7.46623 31.7469 4.74695C34.4662 2.02768 38.1544 0.500001 42 0.500001L45 0.5C45.663 0.5 46.2989 0.76339 46.7678 1.23223C47.2366 1.70107 47.5 2.33696 47.5 3C47.5 3.66304 47.2366 4.29893 46.7678 4.76777C46.2989 5.23661 45.663 5.5 45 5.5L42 5.5C39.4804 5.5 37.0641 6.50089 35.2825 8.28249C33.5009 10.0641 32.5 12.4804 32.5 15ZM5.5 15L5.5 15.5L6 15.5L15 15.5C16.4587 15.5 17.8576 16.0795 18.8891 17.1109C19.9205 18.1424 20.5 19.5413 20.5 21L20.5 30C20.5 31.4587 19.9205 32.8576 18.8891 33.8891C17.8576 34.9205 16.4587 35.5 15 35.5L6 35.5C4.54131 35.5 3.14236 34.9205 2.11092 33.8891C1.07946 32.8576 0.5 31.4587 0.499999 30L0.499998 15C0.499998 11.1544 2.02767 7.46623 4.74695 4.74696C7.46623 2.02768 11.1544 0.500003 15 0.500003L18 0.500003C18.663 0.500003 19.2989 0.763392 19.7678 1.23223C20.2366 1.70108 20.5 2.33696 20.5 3C20.5 3.66305 20.2366 4.29893 19.7678 4.76777C19.2989 5.23661 18.663 5.5 18 5.5L15 5.5C12.4804 5.5 10.0641 6.50089 8.28248 8.28249C6.50089 10.0641 5.5 12.4804 5.5 15Z" stroke="white"/>
</svg>
