<svg width="430" height="116" viewBox="0 0 430 116" fill="none" xmlns="http://www.w3.org/2000/svg">
<path d="M0 0H17.0596V80H0V0Z" fill="white"/>
<path d="M39.8057 80V0L100.936 47.7419V0H117.996V80L56.8653 33.5484V80H39.8057Z" fill="white"/>
<path d="M135.055 15.4839V0H194.764V15.4839H173.439V80H156.38V15.4839H135.055Z" fill="white"/>
<path d="M234.57 0L196.185 80H213.245L234.57 32.2581L255.894 80H275.797L234.57 0Z" fill="white"/>
<path d="M288.592 80V0H305.651V32.2581L338.349 0H359.673L322.711 37.4194L358.252 80H336.927L309.916 47.7419L305.651 51.6129V80H288.592Z" fill="white"/>
<path d="M372.468 80V0H429.333L422.225 15.4839H389.528V33.5484H410.852V47.7419H389.528V65.8064H429.333V80H372.468Z" fill="white"/>
<path d="M178.893 108H174.868L174.894 105.029H178.893C179.892 105.029 180.734 104.805 181.419 104.357C182.105 103.899 182.621 103.235 182.968 102.363C183.324 101.492 183.501 100.438 183.501 99.2022V98.3008C183.501 97.3529 183.4 96.5193 183.197 95.7999C183.002 95.0805 182.71 94.4753 182.321 93.9844C181.931 93.4936 181.453 93.1254 180.886 92.8799C180.319 92.626 179.667 92.4991 178.931 92.4991H174.792V89.5157H178.931C180.167 89.5157 181.296 89.7273 182.321 90.1505C183.353 90.5652 184.246 91.1618 184.999 91.9405C185.753 92.7191 186.332 93.6501 186.739 94.7335C187.153 95.8083 187.361 97.0059 187.361 98.3262V99.2022C187.361 100.514 187.153 101.712 186.739 102.795C186.332 103.878 185.753 104.809 184.999 105.588C184.255 106.358 183.362 106.955 182.321 107.378C181.288 107.793 180.145 108 178.893 108ZM177.027 89.5157V108H173.218V89.5157H177.027ZM210.365 92.6768L205.337 108H201.287L208.156 89.5157H210.733L210.365 92.6768ZM214.541 108L209.501 92.6768L209.095 89.5157H211.698L218.604 108H214.541ZM214.313 101.119V104.103H204.55V101.119H214.313ZM242.941 103.163C242.941 102.833 242.89 102.537 242.788 102.274C242.695 102.004 242.518 101.758 242.255 101.538C241.993 101.31 241.625 101.085 241.151 100.865C240.677 100.645 240.063 100.417 239.31 100.18C238.472 99.9089 237.676 99.6042 236.923 99.2657C236.178 98.9271 235.518 98.5336 234.943 98.085C234.376 97.628 233.927 97.099 233.597 96.4981C233.275 95.8972 233.115 95.199 233.115 94.4034C233.115 93.6332 233.284 92.935 233.622 92.3087C233.961 91.6739 234.435 91.1322 235.044 90.6837C235.654 90.2266 236.373 89.8754 237.202 89.6299C238.04 89.3845 238.959 89.2618 239.957 89.2618C241.32 89.2618 242.509 89.5072 243.525 89.9981C244.54 90.489 245.327 91.1618 245.886 92.0167C246.453 92.8715 246.737 93.849 246.737 94.9493H242.953C242.953 94.4076 242.839 93.9337 242.611 93.5274C242.391 93.1127 242.052 92.7868 241.595 92.5499C241.146 92.3129 240.579 92.1944 239.894 92.1944C239.234 92.1944 238.684 92.296 238.243 92.4991C237.803 92.6937 237.473 92.9603 237.253 93.2989C237.033 93.629 236.923 94.0014 236.923 94.4161C236.923 94.7292 236.999 95.0128 237.152 95.2667C237.312 95.5206 237.549 95.7575 237.863 95.9776C238.176 96.1977 238.561 96.405 239.018 96.5997C239.475 96.7943 240.004 96.9848 240.605 97.171C241.612 97.4756 242.496 97.8184 243.258 98.1993C244.028 98.5801 244.671 99.0075 245.188 99.4815C245.704 99.9555 246.093 100.493 246.356 101.094C246.618 101.695 246.749 102.376 246.749 103.138C246.749 103.942 246.593 104.661 246.28 105.296C245.966 105.931 245.514 106.468 244.921 106.908C244.329 107.348 243.622 107.683 242.801 107.911C241.98 108.14 241.062 108.254 240.046 108.254C239.132 108.254 238.231 108.135 237.342 107.898C236.453 107.653 235.645 107.285 234.917 106.794C234.198 106.303 233.622 105.677 233.191 104.915C232.759 104.153 232.543 103.252 232.543 102.211H236.365C236.365 102.787 236.453 103.273 236.631 103.671C236.809 104.069 237.059 104.39 237.38 104.636C237.71 104.881 238.1 105.059 238.548 105.169C239.005 105.279 239.505 105.334 240.046 105.334C240.706 105.334 241.248 105.241 241.671 105.055C242.103 104.869 242.42 104.61 242.623 104.28C242.835 103.95 242.941 103.578 242.941 103.163ZM274.666 97.044V100.015H265.018V97.044H274.666ZM266.148 89.5157V108H262.339V89.5157H266.148ZM277.383 89.5157V108H273.587V89.5157H277.383ZM300.933 99.8878H296.185L296.159 97.2725H300.146C300.848 97.2725 301.424 97.1837 301.872 97.0059C302.321 96.8197 302.655 96.5531 302.875 96.2061C303.104 95.8506 303.218 95.419 303.218 94.9112C303.218 94.3357 303.108 93.8702 302.888 93.5147C302.676 93.1592 302.342 92.9011 301.885 92.7403C301.436 92.5795 300.857 92.4991 300.146 92.4991H297.505V108H293.697V89.5157H300.146C301.221 89.5157 302.181 89.6172 303.028 89.8204C303.882 90.0235 304.606 90.3324 305.199 90.7471C305.791 91.1618 306.244 91.6866 306.557 92.3214C306.87 92.9477 307.027 93.6924 307.027 94.5557C307.027 95.3174 306.853 96.0199 306.506 96.6631C306.168 97.3064 305.63 97.8311 304.894 98.2374C304.166 98.6436 303.214 98.8679 302.037 98.9102L300.933 99.8878ZM300.768 108H295.144L296.629 105.029H300.768C301.436 105.029 301.982 104.924 302.406 104.712C302.829 104.492 303.142 104.196 303.345 103.823C303.548 103.451 303.65 103.023 303.65 102.541C303.65 101.999 303.557 101.53 303.37 101.132C303.193 100.734 302.905 100.429 302.507 100.218C302.109 99.9978 301.585 99.8878 300.933 99.8878H297.264L297.289 97.2725H301.86L302.736 98.3008C303.861 98.2839 304.767 98.4828 305.452 98.8975C306.146 99.3038 306.65 99.8327 306.963 100.484C307.285 101.136 307.446 101.834 307.446 102.579C307.446 103.764 307.187 104.763 306.671 105.575C306.155 106.379 305.397 106.984 304.399 107.391C303.408 107.797 302.198 108 300.768 108ZM338.486 98.3262V99.2022C338.486 100.607 338.295 101.868 337.914 102.985C337.533 104.103 336.996 105.055 336.302 105.842C335.608 106.621 334.779 107.217 333.814 107.632C332.857 108.047 331.795 108.254 330.627 108.254C329.468 108.254 328.406 108.047 327.441 107.632C326.484 107.217 325.655 106.621 324.952 105.842C324.25 105.055 323.704 104.103 323.315 102.985C322.934 101.868 322.743 100.607 322.743 99.2022V98.3262C322.743 96.9128 322.934 95.6518 323.315 94.543C323.696 93.4258 324.233 92.4737 324.927 91.6866C325.63 90.8995 326.459 90.2986 327.415 89.8839C328.38 89.4691 329.442 89.2618 330.602 89.2618C331.77 89.2618 332.832 89.4691 333.788 89.8839C334.753 90.2986 335.583 90.8995 336.277 91.6866C336.979 92.4737 337.521 93.4258 337.902 94.543C338.291 95.6518 338.486 96.9128 338.486 98.3262ZM334.639 99.2022V98.3008C334.639 97.3191 334.55 96.4558 334.372 95.711C334.195 94.9662 333.932 94.3399 333.585 93.8321C333.238 93.3243 332.815 92.9434 332.316 92.6895C331.816 92.4271 331.245 92.296 330.602 92.296C329.959 92.296 329.387 92.4271 328.888 92.6895C328.397 92.9434 327.978 93.3243 327.631 93.8321C327.293 94.3399 327.034 94.9662 326.857 95.711C326.679 96.4558 326.59 97.3191 326.59 98.3008V99.2022C326.59 100.176 326.679 101.039 326.857 101.792C327.034 102.537 327.297 103.167 327.644 103.684C327.991 104.191 328.414 104.577 328.913 104.839C329.413 105.101 329.984 105.232 330.627 105.232C331.27 105.232 331.842 105.101 332.341 104.839C332.84 104.577 333.259 104.191 333.598 103.684C333.936 103.167 334.195 102.537 334.372 101.792C334.55 101.039 334.639 100.176 334.639 99.2022ZM361.464 92.6768L356.437 108H352.387L359.255 89.5157H361.832L361.464 92.6768ZM365.641 108L360.601 92.6768L360.195 89.5157H362.797L369.703 108H365.641ZM365.412 101.119V104.103H355.65V101.119H365.412ZM384.417 89.5157H391.311C392.724 89.5157 393.939 89.7273 394.954 90.1505C395.978 90.5736 396.766 91.1999 397.316 92.0294C397.866 92.8588 398.141 93.8786 398.141 95.0889C398.141 96.0792 397.972 96.9297 397.633 97.6407C397.303 98.3432 396.833 98.9314 396.224 99.4053C395.623 99.8708 394.916 100.243 394.104 100.523L392.898 101.157H386.906L386.88 98.1866H391.336C392.005 98.1866 392.559 98.0681 392.999 97.8311C393.439 97.5941 393.769 97.2641 393.99 96.8409C394.218 96.4177 394.332 95.9268 394.332 95.3682C394.332 94.7758 394.222 94.2637 394.002 93.8321C393.782 93.4005 393.448 93.0704 392.999 92.8419C392.551 92.6133 391.988 92.4991 391.311 92.4991H388.226V108H384.417V89.5157ZM394.751 108L390.536 99.7608L394.561 99.7354L398.826 107.822V108H394.751ZM419.748 108H415.724L415.749 105.029H419.748C420.747 105.029 421.589 104.805 422.275 104.357C422.96 103.899 423.477 103.235 423.824 102.363C424.179 101.492 424.357 100.438 424.357 99.2022V98.3008C424.357 97.3529 424.255 96.5193 424.052 95.7999C423.857 95.0805 423.565 94.4753 423.176 93.9844C422.787 93.4936 422.309 93.1254 421.741 92.8799C421.174 92.626 420.523 92.4991 419.786 92.4991H415.648V89.5157H419.786C421.022 89.5157 422.152 89.7273 423.176 90.1505C424.209 90.5652 425.102 91.1618 425.855 91.9405C426.608 92.7191 427.188 93.6501 427.594 94.7335C428.009 95.8083 428.216 97.0059 428.216 98.3262V99.2022C428.216 100.514 428.009 101.712 427.594 102.795C427.188 103.878 426.608 104.809 425.855 105.588C425.11 106.358 424.217 106.955 423.176 107.378C422.144 107.793 421.001 108 419.748 108ZM417.882 89.5157V108H414.074V89.5157H417.882Z" fill="white"/>
</svg>
