<svg width="1397" height="344" viewBox="0 0 1397 344" fill="none" xmlns="http://www.w3.org/2000/svg">
<path d="M140 274C140 312.66 108.66 344 70 344C31.3401 344 0 312.66 0 274C0 235.34 31.3401 204 70 204C108.66 204 140 235.34 140 274Z" fill="url(#paint0_linear_1249_15)"/>
<path d="M344 70C344 108.66 312.66 140 274 140C235.34 140 204 108.66 204 70C204 31.3401 235.34 0 274 0C312.66 0 344 31.3401 344 70Z" fill="url(#paint1_linear_1249_15)"/>
<path d="M344 274C344 312.66 312.66 344 274 344C235.34 344 204 312.66 204 274C204 235.34 235.34 204 274 204C312.66 204 344 235.34 344 274Z" fill="url(#paint2_linear_1249_15)"/>
<path d="M140 70C140 108.66 108.66 140 70 140C31.3401 140 0 108.66 0 70C0 31.3401 31.3401 0 70 0C108.66 0 140 31.3401 140 70Z" fill="url(#paint3_linear_1249_15)"/>
<path d="M315 127C260.2 166.6 292.167 203.833 315 217.5L208.5 299.5L194 254.5C178.8 193.3 150 169.333 137.5 165C108.3 151.4 66.3333 140.667 49 137L137.5 52L166.5 130C193.3 190.4 216 199.833 224 197C249.2 194.6 253.5 177 252.5 168.5C252.5 154.5 227.5 122.667 215 108.5L315 127Z" fill="url(#paint4_linear_1249_15)"/>
<path d="M407 290.003V52.9973H439.486L490.536 195.8H491.199V52.9973H525.012V290.003H493.188L441.475 147.533H440.812V290.003H407Z" fill="white"/>
<path d="M555.62 290.003V52.9973H656.394V84.953H589.433V154.523H647.776V186.479H589.433V256.05H656.394V290.003H555.62Z" fill="white"/>
<path d="M787.705 52.9973V236.743C787.705 244.51 786.268 251.722 783.395 258.38C780.743 264.815 776.876 270.585 771.793 275.689C766.71 280.793 760.854 284.788 754.224 287.673C747.594 290.558 740.522 292 733.008 292C725.494 292 718.423 290.558 711.793 287.673C705.384 284.788 699.638 280.793 694.555 275.689C689.472 270.585 685.494 264.815 682.621 258.38C679.748 251.722 678.312 244.51 678.312 236.743V52.9973H712.124V233.414C712.124 241.847 714.113 248.061 718.091 252.055C722.069 256.05 727.041 258.047 733.008 258.047C738.975 258.047 743.948 256.05 747.925 252.055C751.903 248.061 753.892 241.847 753.892 233.414V52.9973H787.705Z" fill="white"/>
<path d="M841.666 290.003V84.953H802.549V52.9973H914.594V84.953H875.478V290.003H841.666Z" fill="white"/>
<path d="M963.334 84.953V158.851H982.561C988.528 158.851 993.279 158.074 996.815 156.521C1000.35 154.745 1003.11 152.304 1005.1 149.198C1006.87 146.091 1008.09 142.318 1008.75 137.88C1009.41 133.22 1009.74 127.894 1009.74 121.902C1009.74 115.91 1009.41 110.695 1008.75 106.257C1008.09 101.597 1006.76 97.6022 1004.77 94.2735C1000.57 88.0599 992.616 84.953 980.903 84.953H963.334ZM929.522 290.003V52.9973H983.887C1023.67 52.9973 1043.56 76.1874 1043.56 122.568C1043.56 136.548 1041.35 148.421 1036.93 158.185C1032.73 167.949 1025.21 175.827 1014.38 181.819L1050.85 290.003H1015.05L983.555 188.809H963.334V290.003H929.522Z" fill="white"/>
<path d="M1071.66 290.003V52.9973H1105.47V290.003H1071.66Z" fill="white"/>
<path d="M1137 290.003V52.9973H1169.48L1220.53 195.8H1221.2V52.9973H1255.01V290.003H1223.19L1171.47 147.533H1170.81V290.003H1137Z" fill="white"/>
<path d="M1283.63 108.92C1283.63 99.3775 1285.29 90.9448 1288.6 83.6216C1291.92 76.2983 1296.34 70.1957 1301.86 65.3135C1307.17 60.6533 1313.13 57.1027 1319.76 54.6616C1326.61 52.2205 1333.46 51 1340.31 51C1347.17 51 1353.91 52.2205 1360.54 54.6616C1367.39 57.1027 1373.57 60.6533 1379.1 65.3135C1384.4 70.1957 1388.71 76.2983 1392.03 83.6216C1395.34 90.9448 1397 99.3775 1397 108.92V234.08C1397 244.066 1395.34 252.61 1392.03 259.711C1388.71 266.813 1384.4 272.693 1379.1 277.354C1373.57 282.236 1367.39 285.897 1360.54 288.338C1353.91 290.779 1347.17 292 1340.31 292C1333.46 292 1326.61 290.779 1319.76 288.338C1313.13 285.897 1307.17 282.236 1301.86 277.354C1296.34 272.693 1291.92 266.813 1288.6 259.711C1285.29 252.61 1283.63 244.066 1283.63 234.08V108.92ZM1317.44 234.08C1317.44 242.291 1319.65 248.394 1324.07 252.388C1328.71 256.161 1334.13 258.047 1340.31 258.047C1346.5 258.047 1351.81 256.161 1356.23 252.388C1360.87 248.394 1363.19 242.291 1363.19 234.08V108.92C1363.19 100.709 1360.87 94.7173 1356.23 90.9448C1351.81 86.9503 1346.5 84.953 1340.31 84.953C1334.13 84.953 1328.71 86.9503 1324.07 90.9448C1319.65 94.7173 1317.44 100.709 1317.44 108.92V234.08Z" fill="white"/>
<defs>
<linearGradient id="paint0_linear_1249_15" x1="0" y1="0" x2="344" y2="344" gradientUnits="userSpaceOnUse">
<stop stop-color="#FAFF00"/>
<stop offset="0.52" stop-color="#F00000"/>
<stop offset="1" stop-color="#7000FF"/>
</linearGradient>
<linearGradient id="paint1_linear_1249_15" x1="0" y1="0" x2="344" y2="344" gradientUnits="userSpaceOnUse">
<stop stop-color="#FAFF00"/>
<stop offset="0.52" stop-color="#F00000"/>
<stop offset="1" stop-color="#7000FF"/>
</linearGradient>
<linearGradient id="paint2_linear_1249_15" x1="0" y1="0" x2="344" y2="344" gradientUnits="userSpaceOnUse">
<stop stop-color="#FAFF00"/>
<stop offset="0.52" stop-color="#F00000"/>
<stop offset="1" stop-color="#7000FF"/>
</linearGradient>
<linearGradient id="paint3_linear_1249_15" x1="0" y1="0" x2="344" y2="344" gradientUnits="userSpaceOnUse">
<stop stop-color="#FAFF00"/>
<stop offset="0.52" stop-color="#F00000"/>
<stop offset="1" stop-color="#7000FF"/>
</linearGradient>
<linearGradient id="paint4_linear_1249_15" x1="0" y1="0" x2="344" y2="344" gradientUnits="userSpaceOnUse">
<stop stop-color="#FAFF00"/>
<stop offset="0.52" stop-color="#F00000"/>
<stop offset="1" stop-color="#7000FF"/>
</linearGradient>
</defs>
</svg>
