<svg width="594" height="594" viewBox="0 0 594 594" fill="none" xmlns="http://www.w3.org/2000/svg">
<circle cx="297" cy="297" r="282" stroke="white" stroke-width="30"/>
<path d="M265 399C265 437.66 233.66 469 195 469C156.34 469 125 437.66 125 399C125 360.34 156.34 329 195 329C233.66 329 265 360.34 265 399Z" fill="white"/>
<path d="M469 195C469 233.66 437.66 265 399 265C360.34 265 329 233.66 329 195C329 156.34 360.34 125 399 125C437.66 125 469 156.34 469 195Z" fill="white"/>
<path d="M469 399C469 437.66 437.66 469 399 469C360.34 469 329 437.66 329 399C329 360.34 360.34 329 399 329C437.66 329 469 360.34 469 399Z" fill="white"/>
<path d="M265 195C265 233.66 233.66 265 195 265C156.34 265 125 233.66 125 195C125 156.34 156.34 125 195 125C233.66 125 265 156.34 265 195Z" fill="white"/>
<path d="M440 252C385.2 291.6 417.167 328.833 440 342.5L333.5 424.5L319 379.5C303.8 318.3 275 294.333 262.5 290C233.3 276.4 191.333 265.667 174 262L262.5 177L291.5 255C318.3 315.4 341 324.833 349 322C374.2 319.6 378.5 302 377.5 293.5C377.5 279.5 352.5 247.667 340 233.5L440 252Z" fill="white"/>
</svg>
