<svg width="256" height="256" viewBox="0 0 256 256" fill="none" xmlns="http://www.w3.org/2000/svg">
<rect x="5" y="5" width="246" height="246" rx="55" fill="url(#paint0_linear_1283_10)" stroke="#DFDFDF" stroke-width="10"/>
<path d="M100.724 61C88.0669 61 75.9281 66.0147 66.9781 74.9409C58.0281 83.8672 53 95.9737 53 108.597C53 121.221 58.0281 133.327 66.9781 142.254C75.9281 151.18 88.0669 156.195 100.724 156.195H108.019C107.366 151.685 107.366 147.105 108.019 142.595H100.724C91.6833 142.595 83.0127 139.013 76.6198 132.638C70.2269 126.262 66.6355 117.614 66.6355 108.597C66.6355 99.5804 70.2269 90.9329 76.6198 84.557C83.0127 78.1812 91.6833 74.5992 100.724 74.5992H155.266C160.321 74.5982 165.314 75.7186 169.882 77.8794C174.449 80.0402 178.478 83.1871 181.676 87.0923C184.874 90.9976 187.16 95.5633 188.37 100.459C189.581 105.354 189.684 110.457 188.673 115.397C192.692 119.323 195.983 123.927 198.395 128.996C201.846 121.74 203.4 113.732 202.912 105.716C202.425 97.7004 199.912 89.9379 195.607 83.1513C191.303 76.3647 185.347 70.7747 178.293 66.9016C171.239 63.0286 163.318 60.9983 155.266 61H100.724ZM121.177 149.395C121.179 144.094 122.423 138.867 124.81 134.131C127.198 129.395 130.663 125.281 134.928 122.119C139.194 118.956 144.141 116.832 149.377 115.916C154.612 115.001 159.989 115.318 165.079 116.844C170.169 118.37 174.831 121.062 178.692 124.705C182.553 128.348 185.507 132.84 187.317 137.824C189.127 142.808 189.743 148.146 189.117 153.41C188.491 158.673 186.639 163.718 183.71 168.142L200.993 185.385L191.352 195L174.062 177.763C168.924 181.15 162.962 183.085 156.809 183.364C150.657 183.642 144.543 182.252 139.119 179.343C133.695 176.433 129.162 172.112 126.003 166.839C122.844 161.566 121.176 155.538 121.177 149.395Z" fill="url(#paint1_linear_1283_10)"/>
<defs>
<linearGradient id="paint0_linear_1283_10" x1="128" y1="0" x2="128" y2="256" gradientUnits="userSpaceOnUse">
<stop stop-color="white"/>
<stop offset="1" stop-color="#DEDEDE"/>
</linearGradient>
<linearGradient id="paint1_linear_1283_10" x1="128" y1="61" x2="128" y2="195" gradientUnits="userSpaceOnUse">
<stop stop-color="#FF0000"/>
<stop offset="1" stop-color="#840099"/>
</linearGradient>
</defs>
</svg>
