<svg width="256" height="256" viewBox="0 0 256 256" fill="none" xmlns="http://www.w3.org/2000/svg">
<rect x="5" y="5" width="246" height="246" rx="55" fill="url(#paint0_linear_1283_7)" stroke="#DFDFDF" stroke-width="10"/>
<g filter="url(#filter0_d_1283_7)">
<path d="M127.625 173C130.25 173 132.47 172.092 134.285 170.277C136.1 168.462 137.005 166.245 137 163.625C136.995 161.005 136.09 158.785 134.285 156.965C132.48 155.145 130.26 154.24 127.625 154.25C124.99 154.26 122.772 155.167 120.972 156.972C119.172 158.777 118.265 160.995 118.25 163.625C118.235 166.255 119.142 168.475 120.972 170.285C122.802 172.095 125.02 173 127.625 173ZM120.875 144.125H134.75C134.75 140 135.22 136.75 136.16 134.375C137.1 132 139.755 128.75 144.125 124.625C147.375 121.375 149.937 118.28 151.812 115.34C153.687 112.4 154.625 108.87 154.625 104.75C154.625 97.75 152.062 92.375 146.937 88.625C141.812 84.875 135.75 83 128.75 83C121.625 83 115.845 84.875 111.41 88.625C106.975 92.375 103.88 96.875 102.125 102.125L114.5 107C115.125 104.75 116.532 102.312 118.722 99.6875C120.912 97.0625 124.255 95.75 128.75 95.75C132.75 95.75 135.75 96.845 137.75 99.035C139.75 101.225 140.75 103.63 140.75 106.25C140.75 108.75 140 111.095 138.5 113.285C137 115.475 135.125 117.505 132.875 119.375C127.375 124.25 124 127.937 122.75 130.437C121.5 132.937 120.875 137.5 120.875 144.125ZM128 203C117.625 203 107.875 201.032 98.75 197.097C89.625 193.162 81.6875 187.817 74.9375 181.062C68.1875 174.307 62.845 166.37 58.91 157.25C54.975 148.13 53.005 138.38 53 128C52.995 117.62 54.965 107.87 58.91 98.75C62.855 89.63 68.1975 81.6925 74.9375 74.9375C81.6775 68.1825 89.615 62.84 98.75 58.91C107.885 54.98 117.635 53.01 128 53C138.365 52.99 148.115 54.96 157.25 58.91C166.385 62.86 174.322 68.2025 181.062 74.9375C187.802 81.6725 193.147 89.61 197.097 98.75C201.047 107.89 203.015 117.64 203 128C202.985 138.36 201.015 148.11 197.09 157.25C193.165 166.39 187.822 174.327 181.062 181.062C174.302 187.797 166.365 193.142 157.25 197.097C148.135 201.052 138.385 203.02 128 203Z" fill="url(#paint1_linear_1283_7)"/>
</g>
<defs>
<filter id="filter0_d_1283_7" x="51" y="53" width="154" height="154" filterUnits="userSpaceOnUse" color-interpolation-filters="sRGB">
<feFlood flood-opacity="0" result="BackgroundImageFix"/>
<feColorMatrix in="SourceAlpha" type="matrix" values="0 0 0 0 0 0 0 0 0 0 0 0 0 0 0 0 0 0 127 0" result="hardAlpha"/>
<feOffset dy="2"/>
<feGaussianBlur stdDeviation="1"/>
<feComposite in2="hardAlpha" operator="out"/>
<feColorMatrix type="matrix" values="0 0 0 0 0 0 0 0 0 0 0 0 0 0 0 0 0 0 0.5 0"/>
<feBlend mode="normal" in2="BackgroundImageFix" result="effect1_dropShadow_1283_7"/>
<feBlend mode="normal" in="SourceGraphic" in2="effect1_dropShadow_1283_7" result="shape"/>
</filter>
<linearGradient id="paint0_linear_1283_7" x1="128" y1="0" x2="128" y2="256" gradientUnits="userSpaceOnUse">
<stop stop-color="white"/>
<stop offset="1" stop-color="#DEDEDE"/>
</linearGradient>
<linearGradient id="paint1_linear_1283_7" x1="53" y1="53" x2="203" y2="203" gradientUnits="userSpaceOnUse">
<stop stop-color="#00A3FF"/>
<stop offset="1" stop-color="#39C560"/>
</linearGradient>
</defs>
</svg>
